<?xml version="1.0" encoding="UTF-8"?>
<svg width="223px" height="222px" viewBox="0 0 223 222" version="1.1" xmlns="http://www.w3.org/2000/svg" xmlns:xlink="http://www.w3.org/1999/xlink">
    <!-- Generator: Sketch 51.2 (57519) - http://www.bohemiancoding.com/sketch -->
    <title>My-Oval</title>
    <desc>Created with Sketch.</desc>
    <defs></defs>
    <g id="Page-1" stroke="none" stroke-width="1" fill="none" fill-rule="evenodd">
        <path d="M112,25 C111.666219,25 111.332882,25.0019015 111,25.0056943 L111,0 L112,0 L112,25 Z M115.776027,25.0814106 C115.443373,25.0670387 115.110228,25.0545565 114.776605,25.0439744 L116.084322,0.0910979857 L117.082952,0.143433942 L115.776008,25.0814097 Z M119.497736,25.3223148 C119.166006,25.2936646 118.833737,25.2668978 118.500941,25.2420248 L120.67619,0.37881064 L121.672385,0.465966383 L119.497736,25.3223148 Z M123.206332,25.7235007 C122.876126,25.6805307 122.545331,25.6394338 122.213959,25.6002209 L125.251907,0.858124911 L126.244453,0.979994254 L123.206332,25.7235007 Z M126.943712,26.2937414 C126.615678,26.2362679 126.287005,26.1806534 125.957703,26.1269092 L130.282544,1.59951533 L131.267352,1.7731635 L126.943712,26.2937414 Z M130.653881,27.0286121 C130.328647,26.9566854 130.002722,26.8866001 129.676116,26.8183675 L135.273805,2.57211258 L136.248175,2.79706364 L130.653881,27.0286121 Z M134.280417,27.9141788 C133.958639,27.8281077 133.636117,27.7438562 133.312863,27.6614359 L139.745951,3.65282376 L140.711877,3.9116428 L134.280417,27.9141788 Z M137.914046,28.9730073 C137.596348,28.8727346 137.277852,28.7742566 136.958572,28.6775853 L144.633451,5.05673703 L145.584508,5.36575402 L137.914046,28.9730073 Z M141.45007,30.1747616 C141.137065,30.0606846 140.823212,29.948374 140.508521,29.8378418 L148.99439,6.52310902 L149.934082,6.86512916 L141.45007,30.1747616 Z M144.978443,31.5500884 C144.670757,31.4222278 144.362168,31.2961024 144.052689,31.1717246 L153.740932,8.34765367 L154.661437,8.7383848 L144.978443,31.5500884 Z M148.396275,33.0587842 C148.094469,32.9176079 147.791709,32.7781329 147.488006,32.6403716 L157.957473,10.1885265 L158.863781,10.6111448 L148.396275,33.0587842 Z M151.791831,34.7396637 C151.496523,34.5852588 151.200206,34.432519 150.902894,34.2814566 L162.526934,12.4198167 L163.409882,12.8892882 L151.791831,34.7396637 Z M155.06513,36.5429823 C154.776826,36.3758704 154.487462,36.210385 154.197051,36.0465386 L166.566987,14.6211802 L167.433013,15.1211802 L155.06513,36.5429823 Z M158.301819,38.5156768 C158.021123,38.3360003 157.739315,38.1579096 157.456407,37.9814173 L170.92459,17.2422344 L171.763261,17.7868734 L158.301819,38.5156768 Z M161.405783,40.5988791 C161.13315,40.4071988 160.859353,40.217062 160.584405,40.0284814 L174.757408,19.7873349 L175.57656,20.3609113 L161.405783,40.5988791 Z M164.459166,42.847488 C164.195184,42.6439919 163.929988,42.4419952 163.663589,42.2415108 L178.86999,22.7782053 L179.658,23.3938667 L164.459166,42.847488 Z M167.370535,45.1939516 C167.115609,44.9792301 166.859418,44.7659628 166.601974,44.5541625 L182.466402,25.647673 L183.232447,26.2904606 L167.370535,45.1939516 Z M170.178033,47.6643938 C169.932615,47.4388423 169.685882,47.2146988 169.437848,46.9919761 L185.939687,28.6648275 L186.682832,29.3339581 L170.178033,47.6643938 Z M172.914649,50.2924578 C172.679343,50.0563543 172.442674,49.8216107 172.204653,49.58824 L189.635299,32.1575939 L190.342406,32.8647007 L172.914649,50.2924578 Z M175.534096,53.0386769 C175.309342,52.7924537 175.083177,52.5475417 174.855612,52.3039537 L193.166042,35.8171685 L193.835172,36.5603133 L175.534096,53.0386769 Z M177.996082,55.8558655 C177.782193,55.6001584 177.566845,55.3457131 177.350052,55.0925424 L196.209539,39.2675531 L196.852327,40.0335975 L177.996082,55.8558655 Z M180.367559,58.820983 C180.165085,58.5560944 179.961107,58.2924172 179.755637,58.0299641 L199.407893,43.2209264 L200.009708,44.0195619 L180.367559,58.820983 Z M182.575319,61.8429135 C182.384525,61.5695002 182.192183,61.2972474 181.998305,61.0261679 L202.139089,46.9234395 L202.712665,47.7425916 L182.575319,61.8429135 Z M184.679861,65.0050825 C184.501284,64.7234894 184.321115,64.4430051 184.139367,64.1636423 L204.980713,51.140524 L205.510632,51.9885721 L184.679861,65.0050825 Z M186.615476,68.2094102 C186.449327,67.9203146 186.281546,67.632276 186.112146,67.345307 L207.37882,55.0669873 L207.87882,55.9330127 L186.615476,68.2094102 Z M188.409827,71.4953986 C188.256436,71.1993115 188.101375,70.9042294 187.944655,70.6101648 L209.610712,59.0901183 L210.080183,59.9730659 L188.409827,71.4953986 Z M190.082789,74.9079324 C189.942676,74.6053139 189.800856,74.3036473 189.65734,74.002945 L211.888855,63.6362191 L212.311473,64.5425268 L190.082789,74.9079324 Z M191.602863,78.3920717 C191.476322,78.0834851 191.34804,77.7757974 191.218027,77.4690206 L213.95502,68.2826794 L214.329626,69.2098632 L191.602863,78.3920717 Z M192.947508,81.8876203 C192.834619,81.5737765 192.719956,81.2607789 192.603533,80.9486394 L215.634871,72.5659178 L215.976891,73.5056104 L192.947508,81.8876203 Z M194.154404,85.4931803 C194.055595,85.1745782 193.954984,84.8567689 193.852583,84.5397644 L217.288207,77.374775 L217.580579,78.3310798 L194.154404,85.4931803 Z M195.185134,89.0942739 C195.1004,88.7716305 195.013838,88.4497276 194.925461,88.128577 L218.588357,81.7881231 L218.847176,82.7540489 L195.185134,89.0942739 Z M196.068916,92.7927781 C195.998617,92.4666411 195.926469,92.1411919 195.852482,91.816442 L219.816283,86.7227789 L220.024194,87.7009265 L196.068916,92.7927781 Z M196.777857,96.4709263 C196.721891,96.1420075 196.664058,95.8137251 196.604369,95.4860903 L220.726836,91.2326484 L220.900485,92.2174562 L196.777857,96.4709263 Z M197.332509,100.232908 C197.291152,99.9017917 197.247913,99.57126 197.202802,99.2413243 L221.520006,96.2555471 L221.641875,97.2480933 L197.332509,100.232908 Z M197.715913,103.958995 C197.68896,103.626373 197.660114,103.294286 197.629386,102.962745 L222.034034,100.827615 L222.121189,101.82381 L197.715913,103.958995 Z M197.939903,107.754815 C197.927529,107.421281 197.913256,107.088233 197.897094,106.75568 L222.38641,105.90053 L222.42131,106.89992 L197.939903,107.75483 Z M197.998577,111.5 C197.999525,111.333445 198,111.166778 198,111 C198,110.833222 197.999525,110.666555 197.998577,110.5 L222.5,110.5 L222.5,111.5 L197.998577,111.5 Z M197.894324,115.30094 C197.910702,114.968406 197.925192,114.635375 197.937782,114.301858 L222.408902,115.584322 L222.356566,116.582952 L197.894324,115.30094 Z M197.629386,119.037255 C197.660114,118.705714 197.68896,118.373627 197.715913,118.041005 L222.121189,120.17619 L222.034034,121.172385 L197.629386,119.037255 Z M197.195089,122.814949 C197.240418,122.48504 197.283876,122.154535 197.325452,121.823443 L221.58731,125.233225 L221.448137,126.223493 L197.195089,122.814949 Z M196.604369,126.51391 C196.664058,126.186275 196.721891,125.857992 196.777857,125.529074 L220.900485,129.782544 L220.726836,130.767352 L196.604369,126.51391 Z M195.839844,130.238946 C195.914046,129.914246 195.986411,129.588847 196.056926,129.262759 L219.927887,134.773805 L219.702936,135.748175 L195.839844,130.238946 Z M194.925461,133.871423 C195.013838,133.550272 195.1004,133.228369 195.185134,132.905726 L218.847176,139.245951 L218.588357,140.211877 L194.925461,133.871423 Z M193.852583,137.460236 C193.954984,137.143231 194.055595,136.825422 194.154404,136.50682 L217.580579,143.66892 L217.288207,144.625225 L193.852583,137.460236 Z M192.603533,141.051361 C192.719956,140.739221 192.834619,140.426223 192.947508,140.11238 L215.976891,148.49439 L215.634871,149.434082 L192.603533,141.051361 Z M191.196002,144.582902 C191.326211,144.276225 191.454691,143.968635 191.58143,143.660147 L214.152346,153.240932 L213.761615,154.161437 L191.196002,144.582902 Z M189.65734,147.997055 C189.800856,147.696353 189.942676,147.394686 190.082789,147.092068 L212.311473,157.457473 L211.888855,158.363781 L189.65734,147.997055 Z M187.944655,151.389835 C188.101375,151.095771 188.256436,150.800689 188.409827,150.504601 L210.080183,162.026934 L209.610712,162.909882 L187.944655,151.389835 Z M186.112146,154.654693 C186.281546,154.367724 186.449327,154.079685 186.615476,153.79059 L207.87882,166.066987 L207.37882,166.933013 L186.112146,154.654693 Z M184.139367,157.836358 C184.321115,157.556995 184.501284,157.276511 184.679861,156.994918 L205.510632,170.011428 L204.980713,170.859476 L184.139367,157.836358 Z M181.998305,160.973832 C182.192183,160.702753 182.384525,160.4305 182.575319,160.157087 L202.712665,174.257408 L202.139089,175.07656 L181.998305,160.973832 Z M179.721765,164.013272 C179.927388,163.750968 180.13152,163.48744 180.334148,163.222699 L199.721795,178.36999 L199.106133,179.158 L179.721765,164.013272 Z M177.350052,166.907458 C177.566845,166.654287 177.782193,166.399842 177.996082,166.144134 L196.852327,181.966402 L196.209539,182.732447 L177.350052,166.907458 Z M174.818484,169.735764 C175.046186,169.492335 175.27249,169.247583 175.497382,169.001519 L193.514403,185.802662 L192.832404,186.534016 L174.818484,169.735764 Z M172.204653,172.41176 C172.442674,172.178389 172.679343,171.943646 172.914649,171.707542 L190.342406,189.135299 L189.635299,189.842406 L172.204653,172.41176 Z M169.437848,175.008024 C169.685882,174.785301 169.932615,174.561158 170.178033,174.335606 L186.682832,192.666042 L185.939687,193.335172 L169.437848,175.008024 Z M166.601974,177.445838 C166.859418,177.234037 167.115609,177.02077 167.370535,176.806048 L183.232447,195.709539 L182.466402,196.352327 L166.601974,177.445838 Z M163.620977,179.790537 C163.887482,179.59023 164.152786,179.388411 164.416876,179.185091 L179.279074,198.907893 L178.480438,199.509708 L163.620977,179.790537 Z M160.584405,181.971519 C160.859353,181.782938 161.13315,181.592801 161.405783,181.401121 L175.57656,201.639089 L174.757408,202.212665 L160.584405,181.971519 Z M157.456407,184.018583 C157.739315,183.84209 158.021123,183.664 158.301819,183.484323 L171.763261,204.213127 L170.92459,204.757766 L157.456407,184.018583 Z M154.197051,185.953461 C154.487462,185.789615 154.776826,185.62413 155.06513,185.457018 L167.433013,206.87882 L166.566987,207.37882 L154.197051,185.953461 Z M150.856294,187.742202 C151.153677,187.591332 151.450065,187.438784 151.745446,187.284571 L162.984312,209.342088 L162.093305,209.796078 L150.856294,187.742202 Z M147.488006,189.359628 C147.791709,189.221867 148.094469,189.082392 148.396275,188.941216 L158.863781,211.388855 L157.957473,211.811473 L147.488006,189.359628 Z M144.004763,190.84752 C144.314292,190.723339 144.622931,190.597411 144.930668,190.469748 L154.217321,213.45502 L153.290137,213.829626 L144.004763,190.84752 Z M140.508521,192.162158 C140.823212,192.051626 141.137065,191.939315 141.45007,191.825238 L149.934082,215.134871 L148.99439,215.476891 L140.508521,192.162158 Z M136.909828,193.337158 C137.229134,193.240686 137.547657,193.142408 137.865384,193.042336 L145.125225,216.788207 L144.16892,217.080579 L136.909828,193.337158 Z M133.312863,194.338564 C133.636117,194.256144 133.958639,194.171892 134.280417,194.085821 L140.711877,218.088357 L139.745951,218.347176 L133.312863,194.338564 Z M129.627077,195.191862 C129.953686,195.123829 130.279616,195.053942 130.604855,194.982215 L135.777221,219.316283 L134.799073,219.524194 L129.627077,195.191862 Z M125.957703,195.873091 C126.287005,195.819347 126.615678,195.763732 126.943712,195.706259 L131.267352,220.226836 L130.282544,220.400485 L125.957703,195.873091 Z M122.213959,196.399779 C122.545331,196.360566 122.876126,196.319469 123.206332,196.276499 L126.244453,221.020006 L125.251907,221.141875 L122.213959,196.399779 Z M118.500941,196.757975 C118.833737,196.733102 119.166006,196.706335 119.497736,196.677685 L121.672385,221.534034 L120.67619,221.621189 L118.500941,196.757975 Z M114.728326,196.957544 C115.061923,196.947147 115.395041,196.934851 115.727671,196.920665 L116.59947,221.88641 L115.60008,221.92131 L114.728326,196.957544 Z M111,196.994306 C111.332882,196.998098 111.666219,197 112,197 L112,222 L111,222 L111,196.994306 Z M107.226551,196.869764 C107.558989,196.88795 107.891929,196.904249 108.225362,196.918649 L106.915678,221.908902 L105.917048,221.856566 L107.226551,196.869764 Z M103.510264,196.586249 C103.841646,196.618721 104.17358,196.649313 104.506055,196.678013 L102.32381,221.621189 L101.327615,221.534034 L103.510264,196.586249 Z M99.7636085,196.13612 C100.093282,196.183081 100.423559,196.228173 100.754426,196.271384 L97.266775,221.08731 L96.2765069,220.948137 L99.7636085,196.13612 Z M96.0872386,195.530728 C96.4145938,195.59197 96.7426022,195.651358 97.0712524,195.708879 L92.7174562,220.400485 L91.7326484,220.226836 L96.0872386,195.530728 Z M92.4410865,194.766076 C92.7655186,194.84153 93.0906555,194.915148 93.4164855,194.986919 L88.2009265,219.524194 L87.2227789,219.316283 L92.4410865,194.766076 Z M88.7878772,193.830945 C89.1086655,193.920653 89.430211,194.008549 89.7525019,194.094619 L83.2540489,218.347176 L82.2881231,218.088357 L88.7878772,193.830945 Z M85.1806052,192.735686 C85.497142,192.839486 85.8144889,192.941498 86.1326338,193.041711 L78.3665489,216.943263 L77.4154923,216.634246 L85.1806052,192.735686 Z M81.6688154,191.498604 C81.9805516,191.616122 82.2931501,191.731881 82.606599,191.845869 L74.0056104,215.476891 L73.0659178,215.134871 L81.6688154,191.498604 Z M78.1734375,190.092103 C78.4797078,190.223261 78.7868935,190.352692 79.0949823,190.480384 L69.2590679,213.652346 L68.338563,213.261615 L78.1734375,190.092103 Z M74.78482,188.552857 C75.0851208,188.697224 75.3863894,188.839898 75.6886133,188.980867 L65.0425268,211.811473 L64.1362191,211.388855 L74.78482,188.552857 Z M71.4278361,186.847203 C71.7215206,187.004629 72.0162254,187.1604 72.3119382,187.314503 L60.4730659,209.580183 L59.5901183,209.110712 L71.4278361,186.847203 Z M68.1877951,185.018939 C68.4744065,185.188952 68.7620901,185.357348 69.0508333,185.524113 L56.4330127,207.37882 L55.5669873,206.87882 L68.1877951,185.018939 Z M64.9940389,183.028743 C65.2729537,183.211134 65.5529926,183.391948 65.8341429,183.571174 L52.0754097,204.757766 L51.2367391,204.213127 L64.9940389,183.028743 Z M61.92634,180.9268 C62.1971456,181.121065 62.4691261,181.313796 62.7422689,181.50498 L48.2425916,202.212665 L47.4234395,201.639089 L61.92634,180.9268 Z M58.918934,178.668567 C59.1810319,178.87445 59.4443557,179.078844 59.7088925,179.281735 L44.1300105,199.221795 L43.3419997,198.606133 L58.918934,178.668567 Z M56.0457432,176.309948 C56.2987604,176.526923 56.5530529,176.742452 56.8086081,176.956525 L40.5335975,196.352327 L39.7675531,195.709539 L56.0457432,176.309948 Z M53.2462166,173.801623 C53.4895796,174.029395 53.7342673,174.255768 53.980267,174.48073 L36.6973376,193.014403 L35.9659839,192.332404 L53.2462166,173.801623 Z M50.58824,171.204653 C50.8216107,171.442674 51.0563543,171.679343 51.2924578,171.914649 L33.3647007,189.842406 L32.6575939,189.135299 L50.58824,171.204653 Z M48.0167073,168.465378 C48.2395364,168.713317 48.4637858,168.959955 48.6894428,169.205277 L29.8339581,186.182832 L29.1648275,185.439687 L48.0167073,168.465378 Z M45.5933354,165.649554 C45.8053185,165.906846 46.0187679,166.162884 46.2336707,166.417656 L26.7904606,182.732447 L26.147673,181.966402 L45.5933354,165.649554 Z M43.2686345,162.699611 C43.4692461,162.965889 43.6713691,163.230964 43.8749909,163.494824 L23.5921065,178.779074 L22.9902915,177.980438 L43.2686345,162.699611 Z M41.0980075,159.685619 C41.2869784,159.960296 41.4775041,160.23382 41.6695719,160.506179 L20.8609113,175.07656 L20.2873349,174.257408 L41.0980075,159.685619 Z M39.0593506,156.581093 C39.2363222,156.863693 39.4148906,157.145191 39.5950431,157.425574 L18.2868734,171.263261 L17.7422344,170.42459 L39.0593506,156.581093 Z M37.1366402,153.356356 C37.3011036,153.646414 37.4672041,153.935423 37.6349292,154.223369 L15.6211802,166.933013 L15.1211802,166.066987 L37.1366402,153.356356 Z M35.3753406,150.08712 C35.527115,150.384058 35.6805648,150.679997 35.8356773,150.974925 L13.3892882,162.909882 L12.9198167,162.026934 L35.3753406,150.08712 Z M33.7405913,146.708119 C33.8792088,147.011427 34.0195376,147.313789 34.1615656,147.615193 L11.1111448,158.363781 L10.6885265,157.457473 L33.7405913,146.708119 Z M32.2708988,143.298354 C32.3962306,143.607434 32.5233074,143.915619 32.6521171,144.222897 L9.2383848,154.161437 L8.84765367,153.240932 L32.2708988,143.298354 Z M30.9373721,139.79031 C31.0490034,140.104605 31.1624108,140.41806 31.2775822,140.730661 L7.36512916,149.434082 L7.02310902,148.49439 L30.9373721,139.79031 Z M29.7594705,136.22742 C29.8571845,136.546352 29.9567028,136.864496 30.0580135,137.181838 L5.71179272,144.625225 L5.41942102,143.66892 L29.7594705,136.22742 Z M28.7495008,132.655291 C28.833257,132.978193 28.9188423,133.300357 29.0062449,133.621773 L4.4116428,140.211877 L4.15282376,139.245951 L28.7495008,132.655291 Z M27.8875219,129.003925 C27.9570265,129.330227 28.0283818,129.655845 28.1015763,129.980767 L3.18371733,135.277221 L2.97580564,134.299073 L27.8875219,129.003925 Z M27.1931881,125.357852 C27.2484876,125.686886 27.3056556,126.015286 27.3646807,126.34304 L2.2731635,130.767352 L2.09951533,129.782544 L27.1931881,125.357852 Z M26.6524722,121.646151 C26.6933601,121.977324 26.7361307,122.307913 26.780773,122.637908 L1.47999425,125.744453 L1.35812491,124.751907 L26.6524722,121.646151 Z M26.2770916,117.954128 C26.3037098,118.286778 26.3322209,118.618894 26.3626141,118.950466 L0.965966383,121.172385 L0.87881064,120.17619 L26.2770916,117.954128 Z M26.0588103,114.210309 C26.07105,114.543835 26.0851889,114.876877 26.1012167,115.209423 L0.613589852,116.09947 L0.578690355,115.10008 L26.0588098,114.210294 Z M26.0014229,110.5 C26.0004747,110.666555 26,110.833222 26,111 C26,111.166778 26.0004747,111.333445 26.0014229,111.5 L0.5,111.5 L0.5,110.5 L26.0014229,110.5 Z M26.1031183,106.751306 C26.0869396,107.083861 26.0726497,107.416912 26.0602593,107.750448 L0.591097986,106.415678 L0.643433942,105.417048 L26.103117,106.751334 Z M26.3626141,103.049534 C26.3322209,103.381106 26.3037098,103.713222 26.2770916,104.045872 L0.87881064,101.82381 L0.965966383,100.827615 L26.3626141,103.049534 Z M26.7860781,99.3229446 C26.7412826,99.6529306 26.6983588,99.9835115 26.6573177,100.314676 L1.41268983,96.766775 L1.55186293,95.7765069 L26.7860781,99.3229446 Z M27.3646807,95.6569599 C27.3056556,95.9847143 27.2484876,96.3131141 27.1931881,96.6421477 L2.09951533,92.2174562 L2.2731635,91.2326484 L27.3646807,95.6569599 Z M28.1103294,91.9804191 C28.0369808,92.3053189 27.9654713,92.6309158 27.8958124,92.9571981 L3.07211258,87.2261954 L3.29706364,86.2518253 L28.1103294,91.9804191 Z M29.0062449,88.3782268 C28.9188423,88.6996427 28.833257,89.0218072 28.7495008,89.3447086 L4.15282376,82.7540489 L4.4116428,81.7881231 L29.0062449,88.3782268 Z M30.0702077,84.7799961 C29.9687443,85.0973024 29.8690732,85.4154099 29.7712063,85.7343068 L5.55673703,77.8665489 L5.86575402,76.9154923 L30.0702077,84.7799961 Z M31.2775822,81.2693389 C31.1624108,81.58194 31.0490034,81.8953945 30.9373721,82.2096903 L7.02310902,73.5056104 L7.36512916,72.5659178 L31.2775822,81.2693389 Z M32.6521171,77.7771027 C32.5233074,78.0843815 32.3962306,78.3925665 32.2708988,78.7016456 L8.84765367,68.7590679 L9.2383848,67.838563 L32.6521171,77.7771027 Z M34.1615656,74.3848068 C34.0195376,74.6862107 33.8792088,74.9885729 33.7405913,75.2918812 L10.6885265,64.5425268 L11.1111448,63.6362191 L34.1615656,74.3848068 Z M35.8356773,71.0250751 C35.6805648,71.3200031 35.527115,71.6159421 35.3753406,71.9128797 L12.9198167,59.9730659 L13.3892882,59.0901183 L35.8356773,71.0250751 Z M37.6349292,67.7766312 C37.4672041,68.0645771 37.3011036,68.3535858 37.1366402,68.6436445 L15.1211802,55.9330127 L15.6211802,55.0669873 L37.6349292,67.7766312 Z M39.5950431,64.5744263 C39.4148906,64.8548093 39.2363222,65.1363071 39.0593506,65.4189068 L17.7422344,51.5754097 L18.2868734,50.7367391 L39.5950431,64.5744263 Z M41.6695719,61.4938205 C41.4775041,61.7661796 41.2869784,62.0397042 41.0980075,62.3143814 L20.2873349,47.7425916 L20.8609113,46.9234395 L41.6695719,61.4938205 Z M43.900135,58.4726095 C43.6963777,58.7363848 43.4941189,59.0013765 43.2933712,59.2675719 L23.2782053,43.6300105 L23.8938667,42.8419997 L43.900135,58.4726095 Z M46.2336707,55.5823435 C46.0187679,55.8371158 45.8053185,56.0931541 45.5933354,56.3504457 L26.147673,40.0335975 L26.7904606,39.2675531 L46.2336707,55.5823435 Z M48.7175922,52.7641355 C48.4918033,53.0093645 48.2674216,53.2559092 48.0444599,53.5037569 L29.4855973,36.1973376 L30.1675957,35.4659839 L48.7175922,52.7641355 Z M51.2924578,50.085351 C51.0563543,50.3206568 50.8216107,50.5573263 50.58824,50.7953467 L32.6575939,32.8647007 L33.3647007,32.1575939 L51.2924578,50.085351 Z M54.0113491,47.4908599 C53.7652208,47.7157198 53.5204043,47.9419913 53.2769121,48.1696617 L36.3171685,29.3339581 L37.0603133,28.6648275 L54.0113491,47.4908599 Z M56.8086081,45.0434754 C56.5530529,45.2575475 56.2987604,45.4730774 56.0457432,45.6900521 L39.7675531,26.2904606 L40.5335975,25.647673 L56.8086081,45.0434754 Z M59.7428294,42.6922498 C59.4781682,42.8950283 59.2147196,43.0993102 58.9524965,43.3050827 L43.7209264,23.0921065 L44.5195619,22.4902915 L59.7428294,42.6922498 Z M62.7422689,40.4950201 C62.4691261,40.686204 62.1971456,40.8789348 61.92634,41.0731996 L47.4234395,20.3609113 L48.2425916,19.7873349 L62.7422689,40.4950201 Z M65.8708275,38.4054533 C65.5895586,38.5845549 65.3094008,38.7652462 65.0303666,38.9475146 L51.640524,17.5192871 L52.4885721,16.9893678 L65.8708275,38.4054533 Z M69.0508333,36.4758865 C68.7620901,36.6426521 68.4744065,36.8110477 68.1877951,36.9810605 L55.5669873,15.1211802 L56.4330127,14.6211802 L69.0508333,36.4758865 Z M72.3512088,34.6650452 C72.0553862,34.8190108 71.760571,34.9746456 71.4667759,35.1319371 L60.0156883,12.6579123 L60.9066948,12.2039218 L72.3512088,34.6650452 Z M75.6886133,33.0191325 C75.3863894,33.1601016 75.0851208,33.3027759 74.78482,33.4471431 L64.1362191,10.6111448 L65.0425268,10.1885265 L75.6886133,33.0191325 Z M79.1366048,31.5023779 C78.8284181,31.62992 78.5211342,31.7592021 78.2147652,31.8902118 L68.7826794,8.54498025 L69.7098632,8.17037366 L79.1366048,31.5023779 Z M82.606599,30.1541309 C82.2931501,30.2681191 81.9805516,30.3838782 81.6688154,30.5013962 L73.0659178,6.86512916 L74.0056104,6.52310902 L82.606599,30.1541309 Z M86.1326338,28.9582888 C85.8144889,29.0585017 85.497142,29.1605141 85.1806052,29.264314 L77.4154923,5.36575402 L78.3665489,5.05673703 L86.1326338,28.9582888 Z M89.7525019,27.9053806 C89.430211,27.991451 89.1086655,28.0793465 88.7878772,28.1690555 L82.2881231,3.9116428 L83.2540489,3.65282376 L89.7525019,27.9053806 Z M93.4164855,27.0130814 C93.0906555,27.0848518 92.7655186,27.15847 92.4410865,27.2339244 L87.2227789,2.68371733 L88.2009265,2.47580564 L93.4164855,27.0130814 Z M97.0712524,26.2911209 C96.7426022,26.3486423 96.4145938,26.4080297 96.0872386,26.4692717 L91.7326484,1.7731635 L92.7174562,1.59951533 L97.0712524,26.2911209 Z M100.801059,25.7225391 C100.470143,25.7655724 100.139817,25.8104868 99.8100927,25.8572712 L96.7555471,0.979994254 L97.7480933,0.858124911 L100.801059,25.7225391 Z M104.506055,25.3219874 C104.17358,25.3506872 103.841646,25.3812786 103.510264,25.4137509 L101.327615,0.465966383 L102.32381,0.37881064 L104.506055,25.3219874 Z M108.272938,25.0793089 C107.939477,25.0935277 107.606507,25.1096454 107.27404,25.1276515 L106.40053,0.113589852 L107.39992,0.0786903552 L108.272961,25.0793079 Z" id="Combined-Shape" fill="#F9C877"></path>
    </g>
</svg>